<svg width="241" height="66" viewBox="0 0 241 66" fill="none" xmlns="http://www.w3.org/2000/svg">
<mask id="path-1-outside-1_4_2" maskUnits="userSpaceOnUse" x="-0.0292358" y="-0.46875" width="241" height="66" fill="black">
<rect fill="white" x="-0.0292358" y="-0.46875" width="241" height="66"/>
<path d="M12.3458 35.5L14.1895 26.5625H22.502C23.8978 26.5625 25.1478 26.2292 26.252 25.5625C27.3562 24.8958 28.2208 24.0104 28.8458 22.9062C29.4916 21.8021 29.8145 20.5729 29.8145 19.2188C29.8145 17.9688 29.5333 16.9271 28.9708 16.0938C28.4083 15.2604 27.6583 14.6354 26.7208 14.2188C25.8041 13.8021 24.7937 13.5938 23.6895 13.5938H16.2208L18.0645 4.46875H24.252C27.3145 4.46875 30.0228 5.04167 32.377 6.1875C34.752 7.3125 36.6062 8.9375 37.9395 11.0625C39.2728 13.1667 39.9395 15.7083 39.9395 18.6875C39.9395 21.9167 39.1687 24.8021 37.627 27.3438C36.1062 29.8854 34.002 31.8854 31.3145 33.3438C28.627 34.7812 25.5333 35.5 22.0333 35.5H12.3458ZM1.22076 50.5312L10.4708 4.46875H20.9083L11.6583 50.5312H1.22076ZM39.5333 50.5312L46.3145 16.9062H55.8458L55.002 20.9688H55.7833L53.6583 23.375C54.0749 22.3542 54.7833 21.3021 55.7833 20.2188C56.8041 19.1354 58.0541 18.2292 59.5333 17.5C61.0333 16.7708 62.6895 16.4062 64.502 16.4062C65.6895 16.4062 66.6999 16.5625 67.5333 16.875C68.3666 17.1875 68.9395 17.5208 69.252 17.875L63.877 26.6562C63.5853 26.4479 63.1687 26.2812 62.627 26.1562C62.1062 26.0104 61.5853 25.9375 61.0645 25.9375C59.9812 25.9375 58.8666 26.2396 57.7208 26.8438C56.5749 27.4479 55.5541 28.3229 54.6583 29.4688C53.7624 30.6146 53.1478 32.0104 52.8145 33.6562L49.4083 50.5312H39.5333ZM80.9708 51.0312C78.0958 51.0312 75.5958 50.3854 73.4708 49.0938C71.3666 47.7812 69.7312 45.9896 68.5645 43.7188C67.4187 41.4479 66.8458 38.8438 66.8458 35.9062C66.8458 33.3229 67.2937 30.8646 68.1895 28.5312C69.0853 26.1979 70.3458 24.125 71.9708 22.3125C73.6166 20.4792 75.5437 19.0417 77.752 18C79.9812 16.9375 82.4187 16.4062 85.0645 16.4062C87.9603 16.4062 90.4916 17.0521 92.6583 18.3438C94.8249 19.6354 96.502 21.4062 97.6895 23.6562C98.877 25.8854 99.4708 28.4583 99.4708 31.375C99.4708 33.9583 99.002 36.4271 98.0645 38.7812C97.1478 41.1354 95.8562 43.2292 94.1895 45.0625C92.5228 46.8958 90.5645 48.3542 88.3145 49.4375C86.0645 50.5 83.6166 51.0312 80.9708 51.0312ZM81.5958 42.7188C82.9083 42.7188 84.0853 42.3854 85.127 41.7188C86.1687 41.0521 87.0541 40.1771 87.7833 39.0938C88.5124 38.0104 89.0645 36.8021 89.4395 35.4688C89.8145 34.1354 90.002 32.8021 90.002 31.4688C90.002 30.1146 89.7937 28.9375 89.377 27.9375C88.9812 26.9167 88.3874 26.1354 87.5958 25.5938C86.8041 25.0312 85.8249 24.75 84.6583 24.75C83.3458 24.75 82.1687 25.0833 81.127 25.75C80.1062 26.3958 79.2312 27.2708 78.502 28.375C77.7937 29.4583 77.252 30.6667 76.877 32C76.502 33.3125 76.3145 34.6354 76.3145 35.9688C76.3145 37.3438 76.5124 38.5417 76.9083 39.5625C77.3249 40.5625 77.9187 41.3438 78.6895 41.9062C79.4812 42.4479 80.4499 42.7188 81.5958 42.7188ZM97.877 64.4062C97.002 64.4062 96.1478 64.3438 95.3145 64.2188C94.4603 64.0938 93.6687 63.9583 92.9395 63.8125L94.7208 55.3438C95.0124 55.4688 95.4083 55.5417 95.9083 55.5625C96.4083 55.6042 96.7833 55.625 97.0333 55.625C98.3041 55.625 99.3458 55.2396 100.158 54.4688C100.95 53.6979 101.45 52.8021 101.658 51.7812L108.565 16.9062H118.44L111.44 52.25C110.96 54.6458 110.127 56.75 108.94 58.5625C107.773 60.3958 106.262 61.8229 104.408 62.8438C102.575 63.8854 100.398 64.4062 97.877 64.4062ZM115.408 13.0312C113.7 13.0312 112.262 12.4479 111.096 11.2812C109.95 10.1146 109.377 8.6875 109.377 7C109.377 5.3125 109.95 3.89583 111.096 2.75C112.262 1.58333 113.7 1 115.408 1C117.075 1 118.492 1.58333 119.658 2.75C120.825 3.89583 121.408 5.3125 121.408 7C121.408 8.6875 120.825 10.1146 119.658 11.2812C118.492 12.4479 117.075 13.0312 115.408 13.0312ZM136.377 51.0312C133.065 51.0312 130.252 50.375 127.94 49.0625C125.648 47.7292 123.887 45.9271 122.658 43.6562C121.45 41.3646 120.846 38.7917 120.846 35.9375C120.846 33.375 121.294 30.9271 122.19 28.5938C123.085 26.2396 124.335 24.1562 125.94 22.3438C127.565 20.5104 129.46 19.0729 131.627 18.0312C133.794 16.9688 136.158 16.4375 138.721 16.4375C141.325 16.4375 143.658 16.9896 145.721 18.0938C147.783 19.1979 149.408 20.7292 150.596 22.6875C151.804 24.625 152.408 26.8542 152.408 29.375C152.408 30.1875 152.335 31.0625 152.19 32C152.044 32.9375 151.846 33.8438 151.596 34.7188C151.367 35.5729 151.117 36.3021 150.846 36.9062H127.783L128.971 30.7188H143.565C143.627 30.4688 143.669 30.2188 143.69 29.9688C143.71 29.7188 143.721 29.4896 143.721 29.2812C143.721 27.8229 143.242 26.6146 142.283 25.6562C141.346 24.6771 140.033 24.1875 138.346 24.1875C136.95 24.1875 135.69 24.5104 134.565 25.1562C133.44 25.8021 132.471 26.6667 131.658 27.75C130.867 28.8125 130.252 30 129.815 31.3125C129.377 32.625 129.158 33.9375 129.158 35.25C129.158 37.625 129.846 39.5312 131.221 40.9688C132.596 42.4062 134.419 43.125 136.69 43.125C138.023 43.125 139.367 42.9062 140.721 42.4688C142.096 42.0312 143.148 41.5312 143.877 40.9688L147.002 48.5C145.46 49.3333 143.742 49.9688 141.846 50.4062C139.971 50.8229 138.148 51.0312 136.377 51.0312ZM171.158 50.9062C168.367 50.9062 165.825 50.3229 163.533 49.1562C161.242 47.9688 159.419 46.2604 158.065 44.0312C156.731 41.7812 156.065 39.0521 156.065 35.8438C156.065 33.1979 156.512 30.7083 157.408 28.375C158.325 26.0417 159.617 23.9792 161.283 22.1875C162.971 20.3958 164.95 18.9896 167.221 17.9688C169.512 16.9271 172.023 16.4062 174.752 16.4062C177.21 16.4062 179.335 16.7812 181.127 17.5312C182.94 18.2604 184.294 19 185.19 19.75L180.283 27.1562C179.658 26.4896 178.762 25.9479 177.596 25.5312C176.429 25.0938 175.315 24.875 174.252 24.875C172.981 24.875 171.815 25.1875 170.752 25.8125C169.69 26.4167 168.773 27.2292 168.002 28.25C167.252 29.2708 166.669 30.4167 166.252 31.6875C165.835 32.9375 165.627 34.2188 165.627 35.5312C165.627 36.9062 165.867 38.0938 166.346 39.0938C166.825 40.0729 167.523 40.8333 168.44 41.375C169.356 41.9167 170.471 42.1875 171.783 42.1875C173.012 42.1875 174.21 41.9688 175.377 41.5312C176.565 41.0729 177.596 40.5104 178.471 39.8438L180.596 48.375C179.429 49.1667 177.992 49.7917 176.283 50.25C174.575 50.6875 172.867 50.9062 171.158 50.9062ZM199.908 51.0312C197.075 51.0312 194.856 50.5 193.252 49.4375C191.648 48.3542 190.575 46.9479 190.033 45.2188C189.492 43.4896 189.408 41.6354 189.783 39.6562L196.252 7.21875H206.033L199.815 38.75C199.627 39.7708 199.658 40.6354 199.908 41.3438C200.158 42.0312 200.752 42.375 201.69 42.375C202.273 42.375 202.815 42.2708 203.315 42.0625C203.835 41.8333 204.2 41.6354 204.408 41.4688L207.627 49.3125C206.835 49.75 205.71 50.1458 204.252 50.5C202.815 50.8542 201.367 51.0312 199.908 51.0312ZM187.377 25.0312L189.002 16.9375H211.44L209.815 25.0312H187.377ZM223.908 51.0312C221.762 51.0312 219.783 50.6667 217.971 49.9375C216.179 49.1875 214.658 48.1875 213.408 46.9375C212.179 45.6875 211.335 44.2812 210.877 42.7188L219.19 39.25C219.523 40.1042 220.127 40.9688 221.002 41.8438C221.877 42.6979 222.992 43.125 224.346 43.125C225.096 43.125 225.752 42.9792 226.315 42.6875C226.877 42.3958 227.315 42.0312 227.627 41.5938C227.94 41.1354 228.096 40.6771 228.096 40.2188C228.096 39.5521 227.783 39 227.158 38.5625C226.533 38.1042 225.721 37.6875 224.721 37.3125C223.742 36.9167 222.69 36.4792 221.565 36C220.46 35.5208 219.408 34.9271 218.408 34.2188C217.429 33.4896 216.627 32.5625 216.002 31.4375C215.377 30.3125 215.065 28.9062 215.065 27.2188C215.065 25.0312 215.627 23.1354 216.752 21.5312C217.877 19.9062 219.387 18.6562 221.283 17.7812C223.179 16.8854 225.283 16.4375 227.596 16.4375C230.637 16.4375 233.2 17.1458 235.283 18.5625C237.387 19.9583 238.783 21.6875 239.471 23.75L231.44 27.125C231.044 26.3542 230.471 25.6979 229.721 25.1562C228.971 24.6146 228.075 24.3438 227.033 24.3438C225.971 24.3438 225.127 24.625 224.502 25.1875C223.877 25.7292 223.565 26.3438 223.565 27.0312C223.565 27.7604 223.887 28.3542 224.533 28.8125C225.179 29.25 226.002 29.6458 227.002 30C228.023 30.3542 229.096 30.75 230.221 31.1875C231.367 31.6042 232.45 32.1562 233.471 32.8438C234.492 33.5104 235.325 34.3958 235.971 35.5C236.617 36.5833 236.94 37.9792 236.94 39.6875C236.94 41.8958 236.356 43.8542 235.19 45.5625C234.023 47.2708 232.46 48.6146 230.502 49.5938C228.544 50.5521 226.346 51.0312 223.908 51.0312Z"/>
</mask>
<path d="M12.3458 35.5L14.1895 26.5625H22.502C23.8978 26.5625 25.1478 26.2292 26.252 25.5625C27.3562 24.8958 28.2208 24.0104 28.8458 22.9062C29.4916 21.8021 29.8145 20.5729 29.8145 19.2188C29.8145 17.9688 29.5333 16.9271 28.9708 16.0938C28.4083 15.2604 27.6583 14.6354 26.7208 14.2188C25.8041 13.8021 24.7937 13.5938 23.6895 13.5938H16.2208L18.0645 4.46875H24.252C27.3145 4.46875 30.0228 5.04167 32.377 6.1875C34.752 7.3125 36.6062 8.9375 37.9395 11.0625C39.2728 13.1667 39.9395 15.7083 39.9395 18.6875C39.9395 21.9167 39.1687 24.8021 37.627 27.3438C36.1062 29.8854 34.002 31.8854 31.3145 33.3438C28.627 34.7812 25.5333 35.5 22.0333 35.5H12.3458ZM1.22076 50.5312L10.4708 4.46875H20.9083L11.6583 50.5312H1.22076ZM39.5333 50.5312L46.3145 16.9062H55.8458L55.002 20.9688H55.7833L53.6583 23.375C54.0749 22.3542 54.7833 21.3021 55.7833 20.2188C56.8041 19.1354 58.0541 18.2292 59.5333 17.5C61.0333 16.7708 62.6895 16.4062 64.502 16.4062C65.6895 16.4062 66.6999 16.5625 67.5333 16.875C68.3666 17.1875 68.9395 17.5208 69.252 17.875L63.877 26.6562C63.5853 26.4479 63.1687 26.2812 62.627 26.1562C62.1062 26.0104 61.5853 25.9375 61.0645 25.9375C59.9812 25.9375 58.8666 26.2396 57.7208 26.8438C56.5749 27.4479 55.5541 28.3229 54.6583 29.4688C53.7624 30.6146 53.1478 32.0104 52.8145 33.6562L49.4083 50.5312H39.5333ZM80.9708 51.0312C78.0958 51.0312 75.5958 50.3854 73.4708 49.0938C71.3666 47.7812 69.7312 45.9896 68.5645 43.7188C67.4187 41.4479 66.8458 38.8438 66.8458 35.9062C66.8458 33.3229 67.2937 30.8646 68.1895 28.5312C69.0853 26.1979 70.3458 24.125 71.9708 22.3125C73.6166 20.4792 75.5437 19.0417 77.752 18C79.9812 16.9375 82.4187 16.4062 85.0645 16.4062C87.9603 16.4062 90.4916 17.0521 92.6583 18.3438C94.8249 19.6354 96.502 21.4062 97.6895 23.6562C98.877 25.8854 99.4708 28.4583 99.4708 31.375C99.4708 33.9583 99.002 36.4271 98.0645 38.7812C97.1478 41.1354 95.8562 43.2292 94.1895 45.0625C92.5228 46.8958 90.5645 48.3542 88.3145 49.4375C86.0645 50.5 83.6166 51.0312 80.9708 51.0312ZM81.5958 42.7188C82.9083 42.7188 84.0853 42.3854 85.127 41.7188C86.1687 41.0521 87.0541 40.1771 87.7833 39.0938C88.5124 38.0104 89.0645 36.8021 89.4395 35.4688C89.8145 34.1354 90.002 32.8021 90.002 31.4688C90.002 30.1146 89.7937 28.9375 89.377 27.9375C88.9812 26.9167 88.3874 26.1354 87.5958 25.5938C86.8041 25.0312 85.8249 24.75 84.6583 24.75C83.3458 24.75 82.1687 25.0833 81.127 25.75C80.1062 26.3958 79.2312 27.2708 78.502 28.375C77.7937 29.4583 77.252 30.6667 76.877 32C76.502 33.3125 76.3145 34.6354 76.3145 35.9688C76.3145 37.3438 76.5124 38.5417 76.9083 39.5625C77.3249 40.5625 77.9187 41.3438 78.6895 41.9062C79.4812 42.4479 80.4499 42.7188 81.5958 42.7188ZM97.877 64.4062C97.002 64.4062 96.1478 64.3438 95.3145 64.2188C94.4603 64.0938 93.6687 63.9583 92.9395 63.8125L94.7208 55.3438C95.0124 55.4688 95.4083 55.5417 95.9083 55.5625C96.4083 55.6042 96.7833 55.625 97.0333 55.625C98.3041 55.625 99.3458 55.2396 100.158 54.4688C100.95 53.6979 101.45 52.8021 101.658 51.7812L108.565 16.9062H118.44L111.44 52.25C110.96 54.6458 110.127 56.75 108.94 58.5625C107.773 60.3958 106.262 61.8229 104.408 62.8438C102.575 63.8854 100.398 64.4062 97.877 64.4062ZM115.408 13.0312C113.7 13.0312 112.262 12.4479 111.096 11.2812C109.95 10.1146 109.377 8.6875 109.377 7C109.377 5.3125 109.95 3.89583 111.096 2.75C112.262 1.58333 113.7 1 115.408 1C117.075 1 118.492 1.58333 119.658 2.75C120.825 3.89583 121.408 5.3125 121.408 7C121.408 8.6875 120.825 10.1146 119.658 11.2812C118.492 12.4479 117.075 13.0312 115.408 13.0312ZM136.377 51.0312C133.065 51.0312 130.252 50.375 127.94 49.0625C125.648 47.7292 123.887 45.9271 122.658 43.6562C121.45 41.3646 120.846 38.7917 120.846 35.9375C120.846 33.375 121.294 30.9271 122.19 28.5938C123.085 26.2396 124.335 24.1562 125.94 22.3438C127.565 20.5104 129.46 19.0729 131.627 18.0312C133.794 16.9688 136.158 16.4375 138.721 16.4375C141.325 16.4375 143.658 16.9896 145.721 18.0938C147.783 19.1979 149.408 20.7292 150.596 22.6875C151.804 24.625 152.408 26.8542 152.408 29.375C152.408 30.1875 152.335 31.0625 152.19 32C152.044 32.9375 151.846 33.8438 151.596 34.7188C151.367 35.5729 151.117 36.3021 150.846 36.9062H127.783L128.971 30.7188H143.565C143.627 30.4688 143.669 30.2188 143.69 29.9688C143.71 29.7188 143.721 29.4896 143.721 29.2812C143.721 27.8229 143.242 26.6146 142.283 25.6562C141.346 24.6771 140.033 24.1875 138.346 24.1875C136.95 24.1875 135.69 24.5104 134.565 25.1562C133.44 25.8021 132.471 26.6667 131.658 27.75C130.867 28.8125 130.252 30 129.815 31.3125C129.377 32.625 129.158 33.9375 129.158 35.25C129.158 37.625 129.846 39.5312 131.221 40.9688C132.596 42.4062 134.419 43.125 136.69 43.125C138.023 43.125 139.367 42.9062 140.721 42.4688C142.096 42.0312 143.148 41.5312 143.877 40.9688L147.002 48.5C145.46 49.3333 143.742 49.9688 141.846 50.4062C139.971 50.8229 138.148 51.0312 136.377 51.0312ZM171.158 50.9062C168.367 50.9062 165.825 50.3229 163.533 49.1562C161.242 47.9688 159.419 46.2604 158.065 44.0312C156.731 41.7812 156.065 39.0521 156.065 35.8438C156.065 33.1979 156.512 30.7083 157.408 28.375C158.325 26.0417 159.617 23.9792 161.283 22.1875C162.971 20.3958 164.95 18.9896 167.221 17.9688C169.512 16.9271 172.023 16.4062 174.752 16.4062C177.21 16.4062 179.335 16.7812 181.127 17.5312C182.94 18.2604 184.294 19 185.19 19.75L180.283 27.1562C179.658 26.4896 178.762 25.9479 177.596 25.5312C176.429 25.0938 175.315 24.875 174.252 24.875C172.981 24.875 171.815 25.1875 170.752 25.8125C169.69 26.4167 168.773 27.2292 168.002 28.25C167.252 29.2708 166.669 30.4167 166.252 31.6875C165.835 32.9375 165.627 34.2188 165.627 35.5312C165.627 36.9062 165.867 38.0938 166.346 39.0938C166.825 40.0729 167.523 40.8333 168.44 41.375C169.356 41.9167 170.471 42.1875 171.783 42.1875C173.012 42.1875 174.21 41.9688 175.377 41.5312C176.565 41.0729 177.596 40.5104 178.471 39.8438L180.596 48.375C179.429 49.1667 177.992 49.7917 176.283 50.25C174.575 50.6875 172.867 50.9062 171.158 50.9062ZM199.908 51.0312C197.075 51.0312 194.856 50.5 193.252 49.4375C191.648 48.3542 190.575 46.9479 190.033 45.2188C189.492 43.4896 189.408 41.6354 189.783 39.6562L196.252 7.21875H206.033L199.815 38.75C199.627 39.7708 199.658 40.6354 199.908 41.3438C200.158 42.0312 200.752 42.375 201.69 42.375C202.273 42.375 202.815 42.2708 203.315 42.0625C203.835 41.8333 204.2 41.6354 204.408 41.4688L207.627 49.3125C206.835 49.75 205.71 50.1458 204.252 50.5C202.815 50.8542 201.367 51.0312 199.908 51.0312ZM187.377 25.0312L189.002 16.9375H211.44L209.815 25.0312H187.377ZM223.908 51.0312C221.762 51.0312 219.783 50.6667 217.971 49.9375C216.179 49.1875 214.658 48.1875 213.408 46.9375C212.179 45.6875 211.335 44.2812 210.877 42.7188L219.19 39.25C219.523 40.1042 220.127 40.9688 221.002 41.8438C221.877 42.6979 222.992 43.125 224.346 43.125C225.096 43.125 225.752 42.9792 226.315 42.6875C226.877 42.3958 227.315 42.0312 227.627 41.5938C227.94 41.1354 228.096 40.6771 228.096 40.2188C228.096 39.5521 227.783 39 227.158 38.5625C226.533 38.1042 225.721 37.6875 224.721 37.3125C223.742 36.9167 222.69 36.4792 221.565 36C220.46 35.5208 219.408 34.9271 218.408 34.2188C217.429 33.4896 216.627 32.5625 216.002 31.4375C215.377 30.3125 215.065 28.9062 215.065 27.2188C215.065 25.0312 215.627 23.1354 216.752 21.5312C217.877 19.9062 219.387 18.6562 221.283 17.7812C223.179 16.8854 225.283 16.4375 227.596 16.4375C230.637 16.4375 233.2 17.1458 235.283 18.5625C237.387 19.9583 238.783 21.6875 239.471 23.75L231.44 27.125C231.044 26.3542 230.471 25.6979 229.721 25.1562C228.971 24.6146 228.075 24.3438 227.033 24.3438C225.971 24.3438 225.127 24.625 224.502 25.1875C223.877 25.7292 223.565 26.3438 223.565 27.0312C223.565 27.7604 223.887 28.3542 224.533 28.8125C225.179 29.25 226.002 29.6458 227.002 30C228.023 30.3542 229.096 30.75 230.221 31.1875C231.367 31.6042 232.45 32.1562 233.471 32.8438C234.492 33.5104 235.325 34.3958 235.971 35.5C236.617 36.5833 236.94 37.9792 236.94 39.6875C236.94 41.8958 236.356 43.8542 235.19 45.5625C234.023 47.2708 232.46 48.6146 230.502 49.5938C228.544 50.5521 226.346 51.0312 223.908 51.0312Z" fill="black"/>
<path d="M12.3458 35.5L11.3664 35.298L11.1184 36.5H12.3458V35.5ZM14.1895 26.5625V25.5625H13.3748L13.2101 26.3605L14.1895 26.5625ZM28.8458 22.9062L27.9826 22.4014L27.979 22.4075L27.9755 22.4137L28.8458 22.9062ZM26.7208 14.2188L26.3069 15.1291L26.3146 15.1326L26.7208 14.2188ZM16.2208 13.5938L15.2406 13.3957L14.9985 14.5938H16.2208V13.5938ZM18.0645 4.46875V3.46875H17.2464L17.0843 4.2707L18.0645 4.46875ZM32.377 6.1875L31.9393 7.0867L31.9489 7.09124L32.377 6.1875ZM37.9395 11.0625L37.0924 11.594L37.0948 11.5978L37.9395 11.0625ZM37.627 27.3438L36.772 26.8251L36.7689 26.8303L37.627 27.3438ZM31.3145 33.3438L31.7862 34.2256L31.7915 34.2227L31.3145 33.3438ZM1.22076 50.5312L0.240337 50.3344L-1.38266e-05 51.5312H1.22076V50.5312ZM10.4708 4.46875V3.46875H9.65161L9.49034 4.27187L10.4708 4.46875ZM20.9083 4.46875L21.8887 4.66563L22.129 3.46875H20.9083V4.46875ZM11.6583 50.5312V51.5312H12.4774L12.6387 50.7281L11.6583 50.5312ZM12.3458 35.5L13.3251 35.702L15.1689 26.7645L14.1895 26.5625L13.2101 26.3605L11.3664 35.298L12.3458 35.5ZM14.1895 26.5625V27.5625H22.502V26.5625V25.5625H14.1895V26.5625ZM22.502 26.5625V27.5625C24.0645 27.5625 25.496 27.1871 26.7689 26.4186L26.252 25.5625L25.7351 24.7064C24.7997 25.2712 23.7312 25.5625 22.502 25.5625V26.5625ZM26.252 25.5625L26.7689 26.4186C28.0176 25.6646 29.0049 24.6551 29.716 23.3988L28.8458 22.9062L27.9755 22.4137C27.4366 23.3657 26.6948 24.127 25.7351 24.7064L26.252 25.5625ZM28.8458 22.9062L29.709 23.4111C30.4497 22.1447 30.8145 20.7396 30.8145 19.2188H29.8145H28.8145C28.8145 20.4063 28.5335 21.4594 27.9826 22.4014L28.8458 22.9062ZM29.8145 19.2188H30.8145C30.8145 17.8181 30.4981 16.5691 29.7996 15.5343L28.9708 16.0938L28.1419 16.6532C28.5684 17.2851 28.8145 18.1194 28.8145 19.2188H29.8145ZM28.9708 16.0938L29.7996 15.5343C29.13 14.5422 28.232 13.7961 27.1269 13.3049L26.7208 14.2188L26.3146 15.1326C27.0845 15.4747 27.6866 15.9786 28.1419 16.6532L28.9708 16.0938ZM26.7208 14.2188L27.1346 13.3084C26.0758 12.8271 24.9225 12.5938 23.6895 12.5938V13.5938V14.5938C24.6649 14.5938 25.5324 14.777 26.307 15.1291L26.7208 14.2188ZM23.6895 13.5938V12.5938H16.2208V13.5938V14.5938H23.6895V13.5938ZM16.2208 13.5938L17.201 13.7918L19.0447 4.6668L18.0645 4.46875L17.0843 4.2707L15.2406 13.3957L16.2208 13.5938ZM18.0645 4.46875V5.46875H24.252V4.46875V3.46875H18.0645V4.46875ZM24.252 4.46875V5.46875C27.1885 5.46875 29.7429 6.01755 31.9394 7.08665L32.377 6.1875L32.8147 5.28835C30.3028 4.06578 27.4405 3.46875 24.252 3.46875V4.46875ZM32.377 6.1875L31.9489 7.09124C34.1603 8.13871 35.8654 9.63836 37.0925 11.594L37.9395 11.0625L38.7866 10.531C37.347 8.23664 35.3438 6.48629 32.8051 5.28376L32.377 6.1875ZM37.9395 11.0625L37.0948 11.5978C38.3083 13.5128 38.9395 15.8603 38.9395 18.6875H39.9395H40.9395C40.9395 15.5563 40.2374 12.8205 38.7842 10.5272L37.9395 11.0625ZM39.9395 18.6875H38.9395C38.9395 21.7501 38.2107 24.4532 36.772 26.8251L37.627 27.3438L38.482 27.8624C40.1267 25.1509 40.9395 22.0832 40.9395 18.6875H39.9395ZM37.627 27.3438L36.7689 26.8303C35.3431 29.2131 33.3729 31.0891 30.8376 32.4648L31.3145 33.3438L31.7915 34.2227C34.6311 32.6818 36.8692 30.5578 38.4851 27.8572L37.627 27.3438ZM31.3145 33.3438L30.8429 32.462C28.3207 33.811 25.3933 34.5 22.0333 34.5V35.5V36.5C25.6732 36.5 28.9333 35.7515 31.7862 34.2255L31.3145 33.3438ZM22.0333 35.5V34.5H12.3458V35.5V36.5H22.0333V35.5ZM1.22076 50.5312L2.20119 50.7281L11.4512 4.66563L10.4708 4.46875L9.49034 4.27187L0.240337 50.3344L1.22076 50.5312ZM10.4708 4.46875V5.46875H20.9083V4.46875V3.46875H10.4708V4.46875ZM20.9083 4.46875L19.9278 4.27187L10.6778 50.3344L11.6583 50.5312L12.6387 50.7281L21.8887 4.66563L20.9083 4.46875ZM11.6583 50.5312V49.5312H1.22076V50.5312V51.5312H11.6583V50.5312ZM39.5333 50.5312L38.553 50.3336L38.3115 51.5312H39.5333V50.5312ZM46.3145 16.9062V15.9062H45.4961L45.3343 16.7086L46.3145 16.9062ZM55.8458 16.9062L56.8249 17.1096L57.0748 15.9062H55.8458V16.9062ZM55.002 20.9688L54.0229 20.7654L53.773 21.9688H55.002V20.9688ZM55.7833 20.9688L56.5328 21.6307L58.0005 19.9688H55.7833V20.9688ZM53.6583 23.375L52.7324 22.9971L54.4078 24.0369L53.6583 23.375ZM55.7833 20.2188L55.0554 19.5329L55.0485 19.5405L55.7833 20.2188ZM59.5333 17.5L59.0961 16.6006L59.0911 16.6031L59.5333 17.5ZM69.252 17.875L70.1049 18.3971L70.4905 17.7672L70.0019 17.2134L69.252 17.875ZM63.877 26.6562L63.2958 27.47L64.1694 28.094L64.7299 27.1783L63.877 26.6562ZM62.627 26.1562L62.3574 27.1192L62.3796 27.1254L62.4022 27.1306L62.627 26.1562ZM54.6583 29.4688L55.4461 30.0847L54.6583 29.4688ZM52.8145 33.6562L51.8344 33.4577L51.8343 33.4584L52.8145 33.6562ZM49.4083 50.5312V51.5312H50.2266L50.3885 50.7291L49.4083 50.5312ZM39.5333 50.5312L40.5135 50.7289L47.2948 17.1039L46.3145 16.9062L45.3343 16.7086L38.553 50.3336L39.5333 50.5312ZM46.3145 16.9062V17.9062H55.8458V16.9062V15.9062H46.3145V16.9062ZM55.8458 16.9062L54.8667 16.7029L54.0229 20.7654L55.002 20.9688L55.9811 21.1721L56.8249 17.1096L55.8458 16.9062ZM55.002 20.9688V21.9688H55.7833V20.9688V19.9688H55.002V20.9688ZM55.7833 20.9688L55.0337 20.3068L52.9087 22.7131L53.6583 23.375L54.4078 24.0369L56.5328 21.6307L55.7833 20.9688ZM53.6583 23.375L54.5841 23.7529C54.9432 22.8732 55.5735 21.9203 56.5181 20.897L55.7833 20.2188L55.0485 19.5405C53.993 20.6839 53.2067 21.8352 52.7324 22.9971L53.6583 23.375ZM55.7833 20.2188L56.5111 20.9046C57.4417 19.917 58.5918 19.079 59.9754 18.3969L59.5333 17.5L59.0911 16.6031C57.5164 17.3793 56.1665 18.3539 55.0555 19.5329L55.7833 20.2188ZM59.5333 17.5L59.9705 18.3994C61.3227 17.742 62.8276 17.4062 64.502 17.4062V16.4062V15.4062C62.5514 15.4062 60.7438 15.7996 59.0961 16.6006L59.5333 17.5ZM64.502 16.4062V17.4062C65.6073 17.4062 66.4917 17.5524 67.1821 17.8113L67.5333 16.875L67.8844 15.9387C66.9082 15.5726 65.7717 15.4062 64.502 15.4062V16.4062ZM67.5333 16.875L67.1821 17.8113C67.9752 18.1087 68.3568 18.3719 68.5022 18.5366L69.252 17.875L70.0019 17.2134C69.5222 16.6698 68.758 16.2663 67.8844 15.9387L67.5333 16.875ZM69.252 17.875L68.3991 17.3529L63.0241 26.1342L63.877 26.6562L64.7299 27.1783L70.1049 18.3971L69.252 17.875ZM63.877 26.6562L64.4583 25.8425C64.0171 25.5274 63.4586 25.3219 62.8519 25.1819L62.627 26.1562L62.4022 27.1306C62.8787 27.2406 63.1536 27.3684 63.2958 27.47L63.877 26.6562ZM62.627 26.1562L62.8966 25.1933C62.2914 25.0238 61.6799 24.9375 61.0645 24.9375V25.9375V26.9375C61.4907 26.9375 61.9209 26.997 62.3574 27.1192L62.627 26.1562ZM61.0645 25.9375V24.9375C59.7897 24.9375 58.516 25.294 57.2544 25.9592L57.7208 26.8438L58.1872 27.7283C59.2172 27.1852 60.1727 26.9375 61.0645 26.9375V25.9375ZM57.7208 26.8438L57.2544 25.9592C55.9691 26.6369 54.8425 27.6095 53.8705 28.8528L54.6583 29.4688L55.4461 30.0847C56.2656 29.0364 57.1808 28.259 58.1872 27.7283L57.7208 26.8438ZM54.6583 29.4688L53.8705 28.8528C52.8652 30.1386 52.1938 31.6833 51.8344 33.4577L52.8145 33.6562L53.7946 33.8548C54.1019 32.3375 54.6597 31.0906 55.4461 30.0847L54.6583 29.4688ZM52.8145 33.6562L51.8343 33.4584L48.428 50.3334L49.4083 50.5312L50.3885 50.7291L53.7947 33.8541L52.8145 33.6562ZM49.4083 50.5312V49.5312H39.5333V50.5312V51.5312H49.4083V50.5312ZM73.4708 49.0938L72.9415 49.9423L72.9513 49.9483L73.4708 49.0938ZM68.5645 43.7188L67.6717 44.1692L67.675 44.1757L68.5645 43.7188ZM71.9708 22.3125L71.2266 21.6445L71.2262 21.645L71.9708 22.3125ZM77.752 18L78.1786 18.9044L78.1823 18.9027L77.752 18ZM92.6583 18.3438L93.1703 17.4848L92.6583 18.3438ZM97.6895 23.6562L96.8051 24.123L96.8069 24.1264L97.6895 23.6562ZM98.0645 38.7812L97.1354 38.4113L97.1327 38.4184L98.0645 38.7812ZM88.3145 49.4375L88.7415 50.3418L88.7483 50.3385L88.3145 49.4375ZM89.4395 35.4688L88.4769 35.198L89.4395 35.4688ZM89.377 27.9375L88.4447 28.299L88.4492 28.3106L88.4539 28.3221L89.377 27.9375ZM87.5958 25.5938L87.0166 26.4089L87.0238 26.4141L87.0311 26.4191L87.5958 25.5938ZM81.127 25.75L81.6617 26.5951L81.6661 26.5923L81.127 25.75ZM78.502 28.375L77.6675 27.8239L77.665 27.8278L78.502 28.375ZM76.877 32L77.8385 32.2747L77.8397 32.2707L76.877 32ZM76.9083 39.5625L75.9759 39.924L75.9804 39.9356L75.9852 39.9471L76.9083 39.5625ZM78.6895 41.9062L78.1 42.714L78.1123 42.723L78.1248 42.7316L78.6895 41.9062ZM80.9708 51.0312V50.0312C78.2499 50.0312 75.9355 49.4217 73.9902 48.2392L73.4708 49.0938L72.9513 49.9483C75.256 51.3491 77.9417 52.0312 80.9708 52.0312V51.0312ZM73.4708 49.0938L74 48.2453C72.0537 47.0313 70.5407 45.3769 69.454 43.2618L68.5645 43.7188L67.675 44.1757C68.9217 46.6022 70.6795 48.5312 72.9415 49.9422L73.4708 49.0938ZM68.5645 43.7188L69.4573 43.2683C68.3921 41.1573 67.8458 38.7116 67.8458 35.9062H66.8458H65.8458C65.8458 38.9759 66.4452 41.7385 67.6717 44.1692L68.5645 43.7188ZM66.8458 35.9062H67.8458C67.8458 33.4413 68.2726 31.1048 69.1231 28.8897L68.1895 28.5312L67.256 28.1728C66.3147 30.6244 65.8458 33.2046 65.8458 35.9062H66.8458ZM68.1895 28.5312L69.1231 28.8897C69.9764 26.6669 71.1738 24.6994 72.7153 22.98L71.9708 22.3125L71.2262 21.645C69.5177 23.5506 68.1942 25.7289 67.256 28.1728L68.1895 28.5312ZM71.9708 22.3125L72.7149 22.9805C74.2725 21.2454 76.0919 19.8887 78.1786 18.9044L77.752 18L77.3254 17.0956C74.9954 18.1946 72.9607 19.7129 71.2266 21.6445L71.9708 22.3125ZM77.752 18L78.1823 18.9027C80.2676 17.9088 82.5567 17.4062 85.0645 17.4062V16.4062V15.4062C82.2806 15.4062 79.6948 15.9662 77.3218 17.0973L77.752 18ZM85.0645 16.4062V17.4062C87.8072 17.4062 90.1562 18.0163 92.1462 19.2027L92.6583 18.3438L93.1703 17.4848C90.827 16.0878 88.1135 15.4062 85.0645 15.4062V16.4062ZM92.6583 18.3438L92.1462 19.2027C94.1537 20.3995 95.7026 22.034 96.8051 24.123L97.6895 23.6562L98.5739 23.1895C97.3014 20.7785 95.4962 18.8714 93.1703 17.4848L92.6583 18.3438ZM97.6895 23.6562L96.8069 24.1264C97.9062 26.1899 98.4708 28.5968 98.4708 31.375H99.4708H100.471C100.471 28.3199 99.8479 25.581 98.5721 23.1861L97.6895 23.6562ZM99.4708 31.375H98.4708C98.4708 33.8342 98.0252 36.1771 97.1355 38.4113L98.0645 38.7812L98.9936 39.1512C99.9789 36.677 100.471 34.0825 100.471 31.375H99.4708ZM98.0645 38.7812L97.1327 38.4184C96.2596 40.6607 95.0322 42.6489 93.4496 44.3898L94.1895 45.0625L94.9295 45.7352C96.6802 43.8094 98.0361 41.6101 98.9964 39.1441L98.0645 38.7812ZM94.1895 45.0625L93.4496 44.3898C91.87 46.1273 90.0159 47.5085 87.8807 48.5365L88.3145 49.4375L88.7483 50.3385C91.1132 49.1999 93.1757 47.6643 94.9295 45.7352L94.1895 45.0625ZM88.3145 49.4375L87.8875 48.5333C85.7794 49.5287 83.4785 50.0312 80.9708 50.0312V51.0312V52.0312C83.7547 52.0312 86.3496 51.4713 88.7415 50.3417L88.3145 49.4375ZM81.5958 42.7188V43.7188C83.0871 43.7188 84.4535 43.3371 85.6661 42.561L85.127 41.7188L84.588 40.8765C83.7172 41.4337 82.7295 41.7188 81.5958 41.7188V42.7188ZM85.127 41.7188L85.6661 42.561C86.8294 41.8165 87.8116 40.8425 88.6129 39.6521L87.7833 39.0938L86.9537 38.5354C86.2966 39.5117 85.508 40.2877 84.588 40.8765L85.127 41.7188ZM87.7833 39.0938L88.6129 39.6521C89.4049 38.4754 90.0001 37.1689 90.4022 35.7395L89.4395 35.4688L88.4769 35.198C88.1289 36.4352 87.62 37.5454 86.9537 38.5354L87.7833 39.0938ZM89.4395 35.4688L90.4022 35.7395C90.801 34.3215 91.002 32.8971 91.002 31.4688H90.002H89.002C89.002 32.7071 88.828 33.9494 88.4769 35.198L89.4395 35.4688ZM90.002 31.4688H91.002C91.002 30.0144 90.7785 28.7011 90.3001 27.5529L89.377 27.9375L88.4539 28.3221C88.8089 29.1739 89.002 30.2147 89.002 31.4688H90.002ZM89.377 27.9375L90.3094 27.576C89.8512 26.3945 89.1414 25.4397 88.1604 24.7684L87.5958 25.5938L87.0311 26.4191C87.6334 26.8312 88.1111 27.4388 88.4447 28.299L89.377 27.9375ZM87.5958 25.5938L88.175 24.7786C87.1823 24.0733 85.9898 23.75 84.6583 23.75V24.75V25.75C85.6601 25.75 86.4259 25.9892 87.0166 26.4089L87.5958 25.5938ZM84.6583 24.75V23.75C83.167 23.75 81.8006 24.1317 80.588 24.9077L81.127 25.75L81.6661 26.5923C82.5368 26.035 83.5246 25.75 84.6583 25.75V24.75ZM81.127 25.75L80.5924 24.9049C79.4409 25.6334 78.4672 26.613 77.6675 27.8239L78.502 28.375L79.3365 28.9261C79.9952 27.9286 80.7715 27.1583 81.6617 26.5951L81.127 25.75ZM78.502 28.375L77.665 27.8278C76.8972 29.0021 76.315 30.3048 75.9144 31.7293L76.877 32L77.8397 32.2707C78.189 31.0286 78.6902 29.9146 79.339 28.9222L78.502 28.375ZM76.877 32L75.9155 31.7253C75.5156 33.125 75.3145 34.5403 75.3145 35.9688H76.3145H77.3145C77.3145 34.7305 77.4885 33.5 77.8385 32.2747L76.877 32ZM76.3145 35.9688H75.3145C75.3145 37.437 75.5256 38.7626 75.9759 39.924L76.9083 39.5625L77.8406 39.201C77.4993 38.3207 77.3145 37.2505 77.3145 35.9688H76.3145ZM76.9083 39.5625L75.9852 39.9471C76.4625 41.0927 77.1622 42.0297 78.1 42.714L78.6895 41.9062L79.279 41.0985C78.6752 40.6578 78.1874 40.0323 77.8313 39.1779L76.9083 39.5625ZM78.6895 41.9062L78.1248 42.7316C79.113 43.4077 80.2884 43.7188 81.5958 43.7188V42.7188V41.7188C80.6115 41.7188 79.8494 41.4882 79.2542 41.0809L78.6895 41.9062ZM95.3145 64.2188L95.4629 63.2298L95.4593 63.2293L95.3145 64.2188ZM92.9395 63.8125L91.9609 63.6067L91.753 64.595L92.7434 64.7931L92.9395 63.8125ZM94.7208 55.3438L95.1147 54.4246L93.9933 53.944L93.7422 55.1379L94.7208 55.3438ZM95.9083 55.5625L95.9913 54.566L95.9706 54.5642L95.9499 54.5634L95.9083 55.5625ZM100.158 54.4688L100.847 55.1943L100.856 55.1852L100.158 54.4688ZM101.658 51.7812L102.638 51.9812L102.639 51.9755L101.658 51.7812ZM108.565 16.9062V15.9062H107.743L107.584 16.712L108.565 16.9062ZM118.44 16.9062L119.42 17.1005L119.657 15.9062H118.44V16.9062ZM111.44 52.25L112.42 52.4461L112.42 52.4443L111.44 52.25ZM108.94 58.5625L108.103 58.0144L108.096 58.0256L108.94 58.5625ZM104.408 62.8438L103.926 61.9677L103.914 61.9743L104.408 62.8438ZM111.096 11.2812L110.382 11.982L110.389 11.9884L111.096 11.2812ZM111.096 2.75L110.389 2.04289L111.096 2.75ZM119.658 2.75L118.951 3.45714L118.958 3.46345L119.658 2.75ZM97.877 64.4062V63.4062C97.0498 63.4062 96.2452 63.3472 95.4629 63.2298L95.3145 64.2188L95.1662 65.2077C96.0505 65.3403 96.9543 65.4062 97.877 65.4062V64.4062ZM95.3145 64.2188L95.4593 63.2293C94.6197 63.1064 93.8453 62.9739 93.1356 62.8319L92.9395 63.8125L92.7434 64.7931C93.492 64.9428 94.301 65.0811 95.1697 65.2082L95.3145 64.2188ZM92.9395 63.8125L93.9181 64.0183L95.6994 55.5496L94.7208 55.3438L93.7422 55.1379L91.9609 63.6067L92.9395 63.8125ZM94.7208 55.3438L94.3268 56.2629C94.7756 56.4552 95.3072 56.5383 95.8666 56.5616L95.9083 55.5625L95.9499 54.5634C95.5093 54.545 95.2493 54.4823 95.1147 54.4246L94.7208 55.3438ZM95.9083 55.5625L95.8252 56.559C96.3312 56.6012 96.7401 56.625 97.0333 56.625V55.625V54.625C96.8265 54.625 96.4853 54.6071 95.9913 54.566L95.9083 55.5625ZM97.0333 55.625V56.625C98.523 56.625 99.8228 56.1654 100.847 55.1942L100.158 54.4688L99.47 53.7433C98.8687 54.3138 98.0852 54.625 97.0333 54.625V55.625ZM100.158 54.4688L100.856 55.1852C101.782 54.2834 102.387 53.2108 102.638 51.9812L101.658 51.7812L100.678 51.5813C100.513 52.3934 100.118 53.1125 99.4606 53.7523L100.158 54.4688ZM101.658 51.7812L102.639 51.9755L109.545 17.1005L108.565 16.9062L107.584 16.712L100.677 51.587L101.658 51.7812ZM108.565 16.9062V17.9062H118.44V16.9062V15.9062H108.565V16.9062ZM118.44 16.9062L117.459 16.712L110.459 52.0557L111.44 52.25L112.42 52.4443L119.42 17.1005L118.44 16.9062ZM111.44 52.25L110.459 52.0539C110.002 54.3402 109.212 56.3218 108.103 58.0145L108.94 58.5625L109.776 59.1105C111.042 57.1782 111.919 54.9515 112.42 52.4461L111.44 52.25ZM108.94 58.5625L108.096 58.0256C107.017 59.7213 105.629 61.0301 103.926 61.9677L104.408 62.8438L104.891 63.7198C106.896 62.6158 108.529 61.0703 109.783 59.0994L108.94 58.5625ZM104.408 62.8438L103.914 61.9743C102.258 62.9151 100.259 63.4062 97.877 63.4062V64.4062V65.4062C100.537 65.4062 102.891 64.8557 104.902 63.7132L104.408 62.8438ZM115.408 13.0312V12.0312C113.955 12.0312 112.775 11.546 111.803 10.5741L111.096 11.2812L110.389 11.9884C111.75 13.3498 113.445 14.0312 115.408 14.0312V13.0312ZM111.096 11.2812L111.809 10.5805C110.853 9.60742 110.377 8.43474 110.377 7H109.377H108.377C108.377 8.94026 109.046 10.6217 110.382 11.982L111.096 11.2812ZM109.377 7H110.377C110.377 5.56548 110.853 4.40692 111.803 3.45711L111.096 2.75L110.389 2.04289C109.047 3.38474 108.377 5.05952 108.377 7H109.377ZM111.096 2.75L111.803 3.45711C112.775 2.48527 113.955 2 115.408 2V1V0C113.445 0 111.75 0.681401 110.389 2.04289L111.096 2.75ZM115.408 1V2C116.813 2 117.974 2.48011 118.951 3.45711L119.658 2.75L120.365 2.04289C119.009 0.686561 117.337 0 115.408 0V1ZM119.658 2.75L118.958 3.46345C119.926 4.41462 120.408 5.57123 120.408 7H121.408H122.408C122.408 5.05377 121.724 3.37704 120.359 2.03655L119.658 2.75ZM121.408 7H120.408C120.408 8.42905 119.926 9.59975 118.951 10.5741L119.658 11.2812L120.365 11.9884C121.724 10.6294 122.408 8.94595 122.408 7H121.408ZM119.658 11.2812L118.951 10.5741C117.974 11.5511 116.813 12.0312 115.408 12.0312V13.0312V14.0312C117.337 14.0312 119.009 13.3447 120.365 11.9884L119.658 11.2812ZM127.94 49.0625L127.437 49.9269L127.446 49.9322L127.94 49.0625ZM122.658 43.6562L121.774 44.1227L121.779 44.1323L122.658 43.6562ZM122.19 28.5938L123.123 28.9522L123.124 28.9494L122.19 28.5938ZM125.94 22.3438L125.191 21.6804L125.191 21.681L125.94 22.3438ZM131.627 18.0312L132.06 18.9325L132.067 18.9291L131.627 18.0312ZM145.721 18.0938L146.193 17.2121L145.721 18.0938ZM150.596 22.6875L149.741 23.206L149.747 23.2167L150.596 22.6875ZM151.596 34.7188L150.634 34.444L150.632 34.4518L150.63 34.4596L151.596 34.7188ZM150.846 36.9062V37.9062H151.493L151.758 37.3153L150.846 36.9062ZM127.783 36.9062L126.801 36.7178L126.573 37.9062H127.783V36.9062ZM128.971 30.7188V29.7188H128.144L127.989 30.5303L128.971 30.7188ZM143.565 30.7188V31.7188H144.345L144.535 30.9613L143.565 30.7188ZM142.283 25.6562L141.561 26.3478L141.568 26.3557L141.576 26.3634L142.283 25.6562ZM131.658 27.75L130.858 27.15L130.856 27.1525L131.658 27.75ZM140.721 42.4688L140.418 41.5158L140.413 41.5172L140.721 42.4688ZM143.877 40.9688L144.801 40.5855L144.3 39.3793L143.266 40.177L143.877 40.9688ZM147.002 48.5L147.478 49.3797L148.272 48.9505L147.926 48.1167L147.002 48.5ZM141.846 50.4062L142.063 51.3825L142.071 51.3806L141.846 50.4062ZM136.377 51.0312V50.0312C133.196 50.0312 130.562 49.4013 128.433 48.1928L127.94 49.0625L127.446 49.9322C129.942 51.3487 132.933 52.0312 136.377 52.0312V51.0312ZM127.94 49.0625L128.442 48.1982C126.305 46.9546 124.677 45.285 123.538 43.1802L122.658 43.6562L121.779 44.1323C123.098 46.5692 124.991 48.5037 127.437 49.9268L127.94 49.0625ZM122.658 43.6562L123.543 43.1898C122.418 41.0561 121.846 38.646 121.846 35.9375H120.846H119.846C119.846 38.9374 120.482 41.673 121.774 44.1227L122.658 43.6562ZM120.846 35.9375H121.846C121.846 33.4944 122.272 31.1682 123.123 28.9522L122.19 28.5938L121.256 28.2353C120.315 30.686 119.846 33.2556 119.846 35.9375H120.846ZM122.19 28.5938L123.124 28.9494C123.979 26.7033 125.167 24.725 126.688 23.0065L125.94 22.3438L125.191 21.681C123.503 23.5875 122.192 25.7758 121.255 28.2381L122.19 28.5938ZM125.94 22.3438L126.688 23.0071C128.226 21.2712 130.016 19.9155 132.06 18.9325L131.627 18.0312L131.194 17.13C128.905 18.2304 126.903 19.7496 125.191 21.6804L125.94 22.3438ZM131.627 18.0312L132.067 18.9291C134.089 17.9379 136.301 17.4375 138.721 17.4375V16.4375V15.4375C136.015 15.4375 133.499 15.9996 131.187 17.1334L131.627 18.0312ZM138.721 16.4375V17.4375C141.179 17.4375 143.347 17.9574 145.249 18.9754L145.721 18.0938L146.193 17.2121C143.969 16.0218 141.471 15.4375 138.721 15.4375V16.4375ZM145.721 18.0938L145.249 18.9754C147.157 19.9969 148.648 21.4043 149.741 23.206L150.596 22.6875L151.451 22.169C150.168 20.0541 148.41 18.3989 146.193 17.2121L145.721 18.0938ZM150.596 22.6875L149.747 23.2167C150.846 24.9792 151.408 27.0212 151.408 29.375H152.408H153.408C153.408 26.6872 152.762 24.2708 151.444 22.1583L150.596 22.6875ZM152.408 29.375H151.408C151.408 30.1283 151.341 30.9514 151.201 31.8463L152.19 32L153.178 32.1537C153.33 31.1736 153.408 30.2467 153.408 29.375H152.408ZM152.19 32L151.201 31.8463C151.062 32.7447 150.872 33.6104 150.634 34.444L151.596 34.7188L152.557 34.9935C152.819 34.0771 153.026 33.1303 153.178 32.1537L152.19 32ZM151.596 34.7188L150.63 34.4596C150.41 35.2784 150.177 35.9545 149.933 36.4972L150.846 36.9062L151.758 37.3153C152.057 36.6497 152.323 35.8675 152.562 34.9779L151.596 34.7188ZM150.846 36.9062V35.9062H127.783V36.9062V37.9062H150.846V36.9062ZM127.783 36.9062L128.765 37.0947L129.953 30.9072L128.971 30.7188L127.989 30.5303L126.801 36.7178L127.783 36.9062ZM128.971 30.7188V31.7188H143.565V30.7188V29.7188H128.971V30.7188ZM143.565 30.7188L144.535 30.9613C144.61 30.6603 144.661 30.357 144.686 30.0518L143.69 29.9688L142.693 29.8857C142.677 30.0805 142.644 30.2772 142.594 30.4762L143.565 30.7188ZM143.69 29.9688L144.686 30.0518C144.709 29.7795 144.721 29.5222 144.721 29.2812H143.721H142.721C142.721 29.457 142.712 29.658 142.693 29.8857L143.69 29.9688ZM143.721 29.2812H144.721C144.721 27.58 144.151 26.1102 142.99 24.9491L142.283 25.6562L141.576 26.3634C142.332 27.119 142.721 28.0658 142.721 29.2812H143.721ZM142.283 25.6562L143.006 24.9647C141.835 23.7424 140.235 23.1875 138.346 23.1875V24.1875V25.1875C139.832 25.1875 140.856 25.6117 141.561 26.3478L142.283 25.6562ZM138.346 24.1875V23.1875C136.789 23.1875 135.355 23.5496 134.067 24.289L134.565 25.1562L135.062 26.0235C136.024 25.4712 137.111 25.1875 138.346 25.1875V24.1875ZM134.565 25.1562L134.067 24.289C132.819 25.0054 131.749 25.9629 130.858 27.15L131.658 27.75L132.458 28.35C133.193 27.3705 134.06 26.5987 135.062 26.0235L134.565 25.1562ZM131.658 27.75L130.856 27.1525C129.998 28.3041 129.335 29.5873 128.866 30.9963L129.815 31.3125L130.763 31.6287C131.169 30.4127 131.735 29.3209 132.46 28.3475L131.658 27.75ZM129.815 31.3125L128.866 30.9963C128.396 32.4052 128.158 33.8243 128.158 35.25H129.158H130.158C130.158 34.0507 130.358 32.8448 130.763 31.6287L129.815 31.3125ZM129.158 35.25H128.158C128.158 37.8294 128.911 40.0012 130.498 41.66L131.221 40.9688L131.943 40.2775C130.78 39.0613 130.158 37.4206 130.158 35.25H129.158ZM131.221 40.9688L130.498 41.66C132.089 43.3233 134.188 44.125 136.69 44.125V43.125V42.125C134.649 42.125 133.102 41.4892 131.943 40.2775L131.221 40.9688ZM136.69 43.125V44.125C138.134 44.125 139.581 43.8877 141.028 43.4203L140.721 42.4688L140.413 41.5172C139.152 41.9248 137.912 42.125 136.69 42.125V43.125ZM140.721 42.4688L141.024 43.4217C142.454 42.9665 143.629 42.4229 144.488 41.7605L143.877 40.9688L143.266 40.177C142.666 40.6396 141.737 41.096 140.418 41.5158L140.721 42.4688ZM143.877 40.9688L142.953 41.352L146.078 48.8833L147.002 48.5L147.926 48.1167L144.801 40.5855L143.877 40.9688ZM147.002 48.5L146.526 47.6203C145.072 48.4066 143.439 49.0123 141.621 49.4319L141.846 50.4062L142.071 51.3806C144.044 50.9252 145.849 50.2601 147.478 49.3797L147.002 48.5ZM141.846 50.4062L141.629 49.4301C139.819 49.8322 138.069 50.0312 136.377 50.0312V51.0312V52.0312C138.227 52.0312 140.122 51.8136 142.063 51.3824L141.846 50.4062ZM163.533 49.1562L163.073 50.0441L163.08 50.0474L163.533 49.1562ZM158.065 44.0312L157.204 44.5411L157.21 44.5504L158.065 44.0312ZM157.408 28.375L156.477 28.0093L156.475 28.0166L157.408 28.375ZM161.283 22.1875L160.555 21.5019L160.551 21.5064L161.283 22.1875ZM167.221 17.9688L167.631 18.8808L167.635 18.8791L167.221 17.9688ZM181.127 17.5312L180.741 18.4538L180.754 18.459L181.127 17.5312ZM185.19 19.75L186.023 20.3023L186.517 19.5571L185.831 18.9832L185.19 19.75ZM180.283 27.1562L179.554 27.8402L180.419 28.7627L181.117 27.7085L180.283 27.1562ZM177.596 25.5312L177.245 26.4676L177.252 26.4703L177.259 26.473L177.596 25.5312ZM170.752 25.8125L171.246 26.6818L171.253 26.6782L171.259 26.6744L170.752 25.8125ZM168.002 28.25L167.204 27.6473L167.196 27.6579L168.002 28.25ZM166.252 31.6875L167.201 32.0037L167.202 31.9991L166.252 31.6875ZM166.346 39.0938L165.444 39.5259L165.448 39.5333L166.346 39.0938ZM175.377 41.5312L175.728 42.4676L175.737 42.4642L175.377 41.5312ZM178.471 39.8438L179.441 39.6021L179.074 38.1272L177.865 39.0483L178.471 39.8438ZM180.596 48.375L181.157 49.2025L181.735 48.8106L181.566 48.1333L180.596 48.375ZM176.283 50.25L176.531 51.2188L176.542 51.2158L176.283 50.25ZM171.158 50.9062V49.9062C168.511 49.9062 166.126 49.3542 163.987 48.2651L163.533 49.1562L163.08 50.0474C165.524 51.2916 168.223 51.9062 171.158 51.9062V50.9062ZM163.533 49.1562L163.993 48.2684C161.866 47.1662 160.179 45.5862 158.919 43.5121L158.065 44.0312L157.21 44.5504C158.658 46.9346 160.617 48.7713 163.073 50.0441L163.533 49.1562ZM158.065 44.0312L158.925 43.5214C157.702 41.4573 157.065 38.9132 157.065 35.8438H156.065H155.065C155.065 39.191 155.761 42.1052 157.204 44.5411L158.065 44.0312ZM156.065 35.8438H157.065C157.065 33.3132 157.492 30.9458 158.342 28.7334L157.408 28.375L156.475 28.0166C155.532 30.4709 155.065 33.0826 155.065 35.8438H156.065ZM157.408 28.375L158.339 28.7407C159.211 26.5211 160.436 24.5662 162.015 22.8686L161.283 22.1875L160.551 21.5064C158.797 23.3921 157.439 25.5623 156.478 28.0093L157.408 28.375ZM161.283 22.1875L162.011 22.8731C163.608 21.1782 165.478 19.8484 167.631 18.8808L167.221 17.9688L166.811 17.0567C164.422 18.1307 162.334 19.6134 160.555 21.5019L161.283 22.1875ZM167.221 17.9688L167.635 18.8791C169.786 17.9014 172.153 17.4062 174.752 17.4062V16.4062V15.4062C171.892 15.4062 169.239 15.9528 166.807 17.0584L167.221 17.9688ZM174.752 16.4062V17.4062C177.112 17.4062 179.099 17.7665 180.741 18.4537L181.127 17.5312L181.513 16.6088C179.571 15.796 177.309 15.4062 174.752 15.4062V16.4062ZM181.127 17.5312L180.754 18.459C182.525 19.1716 183.768 19.8644 184.548 20.5168L185.19 19.75L185.831 18.9832C184.819 18.1356 183.354 17.3493 181.5 16.6035L181.127 17.5312ZM185.19 19.75L184.356 19.1977L179.45 26.604L180.283 27.1562L181.117 27.7085L186.023 20.3023L185.19 19.75ZM180.283 27.1562L181.013 26.4723C180.247 25.6559 179.198 25.0415 177.932 24.5895L177.596 25.5312L177.259 26.473C178.327 26.8543 179.069 27.3233 179.554 27.8402L180.283 27.1562ZM177.596 25.5312L177.947 24.5949C176.687 24.1224 175.453 23.875 174.252 23.875V24.875V25.875C175.176 25.875 176.171 26.0651 177.245 26.4676L177.596 25.5312ZM174.252 24.875V23.875C172.809 23.875 171.466 24.2323 170.245 24.9506L170.752 25.8125L171.259 26.6744C172.163 26.1427 173.154 25.875 174.252 25.875V24.875ZM170.752 25.8125L170.258 24.9432C169.071 25.6178 168.053 26.5231 167.204 27.6474L168.002 28.25L168.8 28.8526C169.493 27.9353 170.308 27.2155 171.246 26.6818L170.752 25.8125ZM168.002 28.25L167.196 27.6579C166.38 28.7687 165.75 30.0102 165.302 31.3759L166.252 31.6875L167.202 31.9991C167.588 30.8231 168.124 29.773 168.808 28.8421L168.002 28.25ZM166.252 31.6875L165.303 31.3713C164.853 32.7228 164.627 34.1108 164.627 35.5312H165.627H166.627C166.627 34.3267 166.818 33.1522 167.201 32.0037L166.252 31.6875ZM165.627 35.5312H164.627C164.627 37.0208 164.887 38.3626 165.444 39.5259L166.346 39.0938L167.248 38.6616C166.847 37.8249 166.627 36.7917 166.627 35.5312H165.627ZM166.346 39.0938L165.448 39.5333C166.01 40.6835 166.842 41.5924 167.931 42.2359L168.44 41.375L168.948 40.5141C168.204 40.0743 167.639 39.4623 167.244 38.6542L166.346 39.0938ZM168.44 41.375L167.931 42.2359C169.034 42.8876 170.333 43.1875 171.783 43.1875V42.1875V41.1875C170.608 41.1875 169.679 40.9457 168.948 40.5141L168.44 41.375ZM171.783 42.1875V43.1875C173.134 43.1875 174.451 42.9466 175.728 42.4676L175.377 41.5312L175.026 40.5949C173.97 40.9909 172.891 41.1875 171.783 41.1875V42.1875ZM175.377 41.5312L175.737 42.4642C176.999 41.9771 178.116 41.3712 179.077 40.6392L178.471 39.8438L177.865 39.0483C177.076 39.6496 176.13 40.1688 175.017 40.5983L175.377 41.5312ZM178.471 39.8438L177.5 40.0854L179.625 48.6167L180.596 48.375L181.566 48.1333L179.441 39.6021L178.471 39.8438ZM180.596 48.375L180.034 47.5475C178.98 48.2629 177.651 48.8477 176.024 49.2842L176.283 50.25L176.542 51.2158C178.332 50.7356 179.878 50.0705 181.157 49.2025L180.596 48.375ZM176.283 50.25L176.035 49.2813C174.405 49.6987 172.78 49.9062 171.158 49.9062V50.9062V51.9062C172.953 51.9062 174.745 51.6763 176.531 51.2187L176.283 50.25ZM193.252 49.4375L192.692 50.2663L192.7 50.2712L193.252 49.4375ZM189.783 39.6562L188.803 39.4607L188.801 39.4701L189.783 39.6562ZM196.252 7.21875V6.21875H195.432L195.271 7.02318L196.252 7.21875ZM206.033 7.21875L207.014 7.41225L207.25 6.21875H206.033V7.21875ZM199.815 38.75L198.833 38.5565L198.831 38.5693L199.815 38.75ZM199.908 41.3438L198.965 41.6766L198.968 41.6855L199.908 41.3438ZM203.315 42.0625L203.699 42.9856L203.708 42.9818L203.717 42.9778L203.315 42.0625ZM204.408 41.4688L205.333 41.0891L204.826 39.8536L203.784 40.6879L204.408 41.4688ZM207.627 49.3125L208.111 50.1877L208.89 49.7569L208.552 48.9329L207.627 49.3125ZM204.252 50.5L204.016 49.5282L204.013 49.529L204.252 50.5ZM187.377 25.0312L186.397 24.8344L186.156 26.0312H187.377V25.0312ZM189.002 16.9375V15.9375H188.183L188.022 16.7407L189.002 16.9375ZM211.44 16.9375L212.42 17.1343L212.66 15.9375H211.44V16.9375ZM209.815 25.0312V26.0312H210.634L210.795 25.2281L209.815 25.0312ZM199.908 51.0312V50.0312C197.184 50.0312 195.184 49.5179 193.804 48.6038L193.252 49.4375L192.7 50.2712C194.528 51.4821 196.966 52.0312 199.908 52.0312V51.0312ZM193.252 49.4375L193.812 48.6088C192.382 47.643 191.457 46.4175 190.988 44.9198L190.033 45.2188L189.079 45.5177C189.693 47.4784 190.914 49.0654 192.692 50.2662L193.252 49.4375ZM190.033 45.2188L190.988 44.9198C190.5 43.3645 190.418 41.6784 190.766 39.8424L189.783 39.6562L188.801 39.4701C188.399 41.5925 188.483 43.6147 189.079 45.5177L190.033 45.2188ZM189.783 39.6562L190.764 39.8518L197.233 7.41432L196.252 7.21875L195.271 7.02318L188.803 39.4607L189.783 39.6562ZM196.252 7.21875V8.21875H206.033V7.21875V6.21875H196.252V7.21875ZM206.033 7.21875L205.052 7.02525L198.833 38.5565L199.815 38.75L200.796 38.9435L207.014 7.41225L206.033 7.21875ZM199.815 38.75L198.831 38.5693C198.623 39.6994 198.639 40.7525 198.965 41.6766L199.908 41.3438L200.851 41.0109C200.677 40.5184 200.631 39.8423 200.798 38.9307L199.815 38.75ZM199.908 41.3438L198.968 41.6855C199.168 42.2341 199.526 42.6849 200.04 42.9826C200.535 43.2692 201.107 43.375 201.69 43.375V42.375V41.375C201.335 41.375 201.141 41.309 201.042 41.2518C200.963 41.2057 200.899 41.1409 200.848 41.002L199.908 41.3438ZM201.69 42.375V43.375C202.395 43.375 203.068 43.2485 203.699 42.9856L203.315 42.0625L202.93 41.1394C202.561 41.2932 202.151 41.375 201.69 41.375V42.375ZM203.315 42.0625L203.717 42.9778C204.249 42.7439 204.716 42.5031 205.033 42.2496L204.408 41.4688L203.784 40.6879C203.684 40.7678 203.422 40.9228 202.912 41.1472L203.315 42.0625ZM204.408 41.4688L203.483 41.8484L206.702 49.6921L207.627 49.3125L208.552 48.9329L205.333 41.0891L204.408 41.4688ZM207.627 49.3125L207.143 48.4373C206.464 48.8128 205.437 49.1832 204.016 49.5282L204.252 50.5L204.488 51.4718C205.984 51.1084 207.207 50.6872 208.111 50.1877L207.627 49.3125ZM204.252 50.5L204.013 49.529C202.652 49.8642 201.285 50.0312 199.908 50.0312V51.0312V52.0312C201.448 52.0312 202.977 51.8441 204.491 51.471L204.252 50.5ZM187.377 25.0312L188.357 25.2281L189.982 17.1343L189.002 16.9375L188.022 16.7407L186.397 24.8344L187.377 25.0312ZM189.002 16.9375V17.9375H211.44V16.9375V15.9375H189.002V16.9375ZM211.44 16.9375L210.459 16.7407L208.834 24.8344L209.815 25.0312L210.795 25.2281L212.42 17.1343L211.44 16.9375ZM209.815 25.0312V24.0312H187.377V25.0312V26.0312H209.815V25.0312ZM217.971 49.9375L217.585 50.86L217.598 50.8652L217.971 49.9375ZM213.408 46.9375L212.695 47.6387L212.701 47.6446L213.408 46.9375ZM210.877 42.7188L210.492 41.7959L209.665 42.1408L209.917 43.0002L210.877 42.7188ZM219.19 39.25L220.121 38.8865L219.749 37.933L218.804 38.3271L219.19 39.25ZM221.002 41.8438L220.295 42.5509L220.303 42.5593L221.002 41.8438ZM226.315 42.6875L225.854 41.7997L226.315 42.6875ZM227.627 41.5938L228.441 42.175L228.447 42.1661L228.453 42.1571L227.627 41.5938ZM227.158 38.5625L226.567 39.3689L226.576 39.3754L226.585 39.3817L227.158 38.5625ZM224.721 37.3125L224.346 38.2396L224.358 38.2444L224.37 38.2488L224.721 37.3125ZM221.565 36L221.166 36.9174L221.173 36.92L221.565 36ZM218.408 34.2188L217.811 35.0208L217.821 35.0279L217.83 35.0348L218.408 34.2188ZM216.752 21.5312L217.571 22.1054L217.574 22.1005L216.752 21.5312ZM221.283 17.7812L221.702 18.6892L221.71 18.6854L221.283 17.7812ZM235.283 18.5625L234.721 19.3895L234.73 19.3958L235.283 18.5625ZM239.471 23.75L239.858 24.6719L240.712 24.3129L240.419 23.4338L239.471 23.75ZM231.44 27.125L230.55 27.5818L230.973 28.4057L231.827 28.0469L231.44 27.125ZM224.502 25.1875L225.157 25.9432L225.164 25.9371L225.171 25.9308L224.502 25.1875ZM224.533 28.8125L223.955 29.628L223.963 29.6343L223.972 29.6404L224.533 28.8125ZM227.002 30L226.668 30.9426L226.674 30.9448L227.002 30ZM230.221 31.1875L229.858 32.1195L229.869 32.1235L229.879 32.1273L230.221 31.1875ZM233.471 32.8438L232.912 33.6732L232.918 33.6771L232.924 33.681L233.471 32.8438ZM235.971 35.5L235.108 36.0049L235.112 36.0121L235.971 35.5ZM230.502 49.5938L230.942 50.492L230.949 50.4882L230.502 49.5938ZM223.908 51.0312V50.0312C221.878 50.0312 220.027 49.6867 218.344 49.0098L217.971 49.9375L217.598 50.8652C219.54 51.6466 221.647 52.0312 223.908 52.0312V51.0312ZM217.971 49.9375L218.357 49.0151C216.673 48.3103 215.265 47.3797 214.115 46.2304L213.408 46.9375L212.701 47.6446C214.052 48.9953 215.685 50.0647 217.585 50.8599L217.971 49.9375ZM213.408 46.9375L214.121 46.2364C212.999 45.0946 212.245 43.8297 211.837 42.4373L210.877 42.7188L209.917 43.0002C210.426 44.7328 211.36 46.2804 212.695 47.6386L213.408 46.9375ZM210.877 42.7188L211.262 43.6416L219.575 40.1729L219.19 39.25L218.804 38.3271L210.492 41.7959L210.877 42.7188ZM219.19 39.25L218.258 39.6135C218.656 40.6331 219.354 41.6104 220.295 42.5509L221.002 41.8438L221.709 41.1366C220.9 40.3271 220.39 39.5752 220.121 38.8865L219.19 39.25ZM221.002 41.8438L220.303 42.5593C221.386 43.6162 222.761 44.125 224.346 44.125V43.125V42.125C223.222 42.125 222.368 41.7797 221.701 41.1282L221.002 41.8438ZM224.346 43.125V44.125C225.227 44.125 226.046 43.9531 226.775 43.5753L226.315 42.6875L225.854 41.7997C225.458 42.0053 224.965 42.125 224.346 42.125V43.125ZM226.315 42.6875L226.775 43.5753C227.453 43.2237 228.021 42.7623 228.441 42.175L227.627 41.5938L226.813 41.0125C226.608 41.3002 226.301 41.5679 225.854 41.7997L226.315 42.6875ZM227.627 41.5938L228.453 42.1571C228.855 41.5681 229.096 40.917 229.096 40.2188H228.096H227.096C227.096 40.4371 227.024 40.7027 226.801 41.0304L227.627 41.5938ZM228.096 40.2188H229.096C229.096 39.1749 228.579 38.3367 227.732 37.7433L227.158 38.5625L226.585 39.3817C226.987 39.6633 227.096 39.9293 227.096 40.2188H228.096ZM227.158 38.5625L227.75 37.7561C227.029 37.2276 226.128 36.7721 225.072 36.3762L224.721 37.3125L224.37 38.2488C225.314 38.6029 226.038 38.9807 226.567 39.3689L227.158 38.5625ZM224.721 37.3125L225.096 36.3854C224.123 35.9922 223.077 35.5571 221.956 35.08L221.565 36L221.173 36.92C222.302 37.4012 223.36 37.8411 224.346 38.2396L224.721 37.3125ZM221.565 36L221.963 35.0827C220.923 34.6315 219.931 34.0719 218.986 33.4027L218.408 34.2188L217.83 35.0348C218.886 35.7823 219.998 36.4102 221.166 36.9173L221.565 36ZM218.408 34.2188L219.006 33.4167C218.146 32.7767 217.436 31.9598 216.876 30.9519L216.002 31.4375L215.128 31.9231C215.818 33.1652 216.712 34.2024 217.811 35.0208L218.408 34.2188ZM216.002 31.4375L216.876 30.9519C216.355 30.0146 216.065 28.7876 216.065 27.2188H215.065H214.065C214.065 29.0249 214.399 30.6104 215.128 31.9231L216.002 31.4375ZM215.065 27.2188H216.065C216.065 25.2118 216.577 23.522 217.571 22.1054L216.752 21.5312L215.933 20.9571C214.677 22.7488 214.065 24.8507 214.065 27.2188H215.065ZM216.752 21.5312L217.574 22.1005C218.592 20.6308 219.959 19.4937 221.702 18.6892L221.283 17.7812L220.864 16.8733C218.816 17.8188 217.162 19.1817 215.93 20.962L216.752 21.5312ZM221.283 17.7812L221.71 18.6854C223.46 17.8589 225.416 17.4375 227.596 17.4375V16.4375V15.4375C225.151 15.4375 222.899 15.9119 220.856 16.8771L221.283 17.7812ZM227.596 16.4375V17.4375C230.479 17.4375 232.835 18.1071 234.721 19.3894L235.283 18.5625L235.846 17.7356C233.565 16.1845 230.796 15.4375 227.596 15.4375V16.4375ZM235.283 18.5625L234.73 19.3958C236.68 20.6891 237.916 22.2486 238.522 24.0662L239.471 23.75L240.419 23.4338C239.65 21.1264 238.095 19.2276 235.836 17.7292L235.283 18.5625ZM239.471 23.75L239.083 22.8281L231.052 26.2031L231.44 27.125L231.827 28.0469L239.858 24.6719L239.471 23.75ZM231.44 27.125L232.329 26.6682C231.856 25.7477 231.175 24.9732 230.306 24.3456L229.721 25.1562L229.135 25.9669C229.766 26.4227 230.231 26.9607 230.55 27.5818L231.44 27.125ZM229.721 25.1562L230.306 24.3456C229.365 23.6656 228.258 23.3438 227.033 23.3438V24.3438V25.3438C227.892 25.3438 228.577 25.5636 229.135 25.9669L229.721 25.1562ZM227.033 24.3438V23.3438C225.791 23.3438 224.686 23.6763 223.833 24.4442L224.502 25.1875L225.171 25.9308C225.568 25.5737 226.15 25.3438 227.033 25.3438V24.3438ZM224.502 25.1875L223.847 24.4318C223.052 25.1212 222.565 25.995 222.565 27.0312H223.565H224.565C224.565 26.6925 224.702 26.3371 225.157 25.9432L224.502 25.1875ZM223.565 27.0312H222.565C222.565 28.1158 223.071 29.001 223.955 29.628L224.533 28.8125L225.112 27.997C224.704 27.7073 224.565 27.4051 224.565 27.0312H223.565ZM224.533 28.8125L223.972 29.6404C224.709 30.1393 225.615 30.5695 226.668 30.9426L227.002 30L227.336 29.0574C226.389 28.7222 225.649 28.3607 225.094 27.9846L224.533 28.8125ZM227.002 30L226.674 30.9448C227.682 31.2945 228.743 31.686 229.858 32.1195L230.221 31.1875L230.583 30.2555C229.448 29.814 228.364 29.4139 227.33 29.0552L227.002 30ZM230.221 31.1875L229.879 32.1273C230.948 32.5159 231.958 33.0307 232.912 33.6732L233.471 32.8438L234.029 32.0143C232.942 31.2818 231.786 30.6925 230.563 30.2477L230.221 31.1875ZM233.471 32.8438L232.924 33.681C233.809 34.2587 234.536 35.0278 235.108 36.0049L235.971 35.5L236.834 34.9951C236.114 33.7639 235.175 32.7621 234.018 32.0065L233.471 32.8438ZM235.971 35.5L235.112 36.0121C235.638 36.895 235.94 38.0978 235.94 39.6875H236.94H237.94C237.94 37.8605 237.595 36.2716 236.83 34.9879L235.971 35.5ZM236.94 39.6875H235.94C235.94 41.7089 235.409 43.4678 234.364 44.9985L235.19 45.5625L236.015 46.1265C237.303 44.2405 237.94 42.0828 237.94 39.6875H236.94ZM235.19 45.5625L234.364 44.9985C233.299 46.558 231.87 47.7917 230.055 48.6993L230.502 49.5938L230.949 50.4882C233.051 49.4375 234.747 47.9836 236.015 46.1265L235.19 45.5625ZM230.502 49.5938L230.062 48.6955C228.256 49.5794 226.212 50.0312 223.908 50.0312V51.0312V52.0312C226.48 52.0312 228.831 51.5248 230.942 50.492L230.502 49.5938Z" fill="black" mask="url(#path-1-outside-1_4_2)"/>
</svg>
